<?xml version="1.0" encoding="iso-8859-1"?>
<!-- Uploaded to: SVG Repo, www.svgrepo.com, Generator: SVG Repo Mixer Tools -->
<svg version="1.1" id="Layer_1" xmlns="http://www.w3.org/2000/svg" xmlns:xlink="http://www.w3.org/1999/xlink" 
	 viewBox="0 0 512 512" xml:space="preserve">
<polygon style="fill:#6DDEB4;" points="503.83,413.151 503.83,478.164 471.149,478.164 449.362,391.364 "/>
<polygon style="fill:#9EF3D3;" points="40.851,391.364 8.17,413.151 8.17,478.164 471.149,478.164 471.149,391.364 "/>
<rect x="8.17" y="33.835" style="fill:#4FC297;" width="495.66" height="379.316"/>
<path style="fill:#9EF3D3;" d="M81.484,296.805v86.06c23.77,0,43.03-19.271,43.03-43.03
	C124.514,316.065,105.254,296.805,81.484,296.805z"/>
<path style="fill:#C7FFEA;" d="M81.484,296.805c-23.77,0-43.03,19.26-43.03,43.03c0,23.759,19.26,43.03,43.03,43.03
	c11.732,0,21.243-19.271,21.243-43.03C102.727,316.065,93.217,296.805,81.484,296.805z"/>
<path style="fill:#9EF3D3;" d="M81.484,180.461v86.06c23.77,0,43.03-19.271,43.03-43.03
	C124.514,199.721,105.254,180.461,81.484,180.461z"/>
<path style="fill:#C7FFEA;" d="M81.484,180.461c-23.77,0-43.03,19.26-43.03,43.03c0,23.759,19.26,43.03,43.03,43.03
	c11.732,0,21.243-19.271,21.243-43.03C102.727,199.721,93.217,180.461,81.484,180.461z"/>
<path style="fill:#9EF3D3;" d="M81.484,64.119v86.06c23.77,0,43.03-19.271,43.03-43.03C124.514,83.379,105.254,64.119,81.484,64.119
	z"/>
<path style="fill:#C7FFEA;" d="M81.484,64.119c-23.77,0-43.03,19.26-43.03,43.03c0,23.758,19.259,43.029,43.028,43.03
	c11.735,0,21.245-19.271,21.245-43.03C102.727,83.379,93.217,64.119,81.484,64.119z"/>
<path style="fill:#9EF3D3;" d="M197.828,296.805v86.06c23.77,0,43.03-19.271,43.03-43.03
	C240.858,316.065,221.598,296.805,197.828,296.805z"/>
<path style="fill:#C7FFEA;" d="M197.828,296.805c-23.77,0-43.03,19.26-43.03,43.03c0,23.759,19.26,43.03,43.03,43.03
	c11.732,0,21.243-19.271,21.243-43.03C219.071,316.065,209.561,296.805,197.828,296.805z"/>
<path style="fill:#9EF3D3;" d="M197.828,180.461v86.06c23.77,0,43.03-19.271,43.03-43.03
	C240.858,199.721,221.598,180.461,197.828,180.461z"/>
<path style="fill:#C7FFEA;" d="M197.828,180.461c-23.77,0-43.03,19.26-43.03,43.03c0,23.759,19.26,43.03,43.03,43.03
	c11.732,0,21.243-19.271,21.243-43.03C219.071,199.721,209.561,180.461,197.828,180.461z"/>
<path style="fill:#9EF3D3;" d="M197.828,64.119v86.06c23.77,0,43.03-19.271,43.03-43.03
	C240.858,83.379,221.598,64.119,197.828,64.119z"/>
<path style="fill:#C7FFEA;" d="M197.828,64.119c-23.77,0-43.03,19.26-43.03,43.03c0,23.758,19.259,43.029,43.028,43.03
	c11.735,0,21.245-19.271,21.245-43.03C219.071,83.379,209.561,64.119,197.828,64.119z"/>
<path style="fill:#9EF3D3;" d="M314.172,296.805v86.06c23.77,0,43.03-19.271,43.03-43.03
	C357.202,316.065,337.942,296.805,314.172,296.805z"/>
<path style="fill:#C7FFEA;" d="M314.172,296.805c-23.77,0-43.03,19.26-43.03,43.03c0,23.759,19.26,43.03,43.03,43.03
	c11.732,0,21.243-19.271,21.243-43.03C335.414,316.065,325.904,296.805,314.172,296.805z"/>
<path style="fill:#9EF3D3;" d="M314.172,180.461v86.06c23.77,0,43.03-19.271,43.03-43.03
	C357.202,199.721,337.942,180.461,314.172,180.461z"/>
<path style="fill:#C7FFEA;" d="M314.172,180.461c-23.77,0-43.03,19.26-43.03,43.03c0,23.759,19.26,43.03,43.03,43.03
	c11.732,0,21.243-19.271,21.243-43.03C335.414,199.721,325.904,180.461,314.172,180.461z"/>
<path style="fill:#9EF3D3;" d="M314.172,64.119v86.06c23.77,0,43.03-19.271,43.03-43.03
	C357.202,83.379,337.942,64.119,314.172,64.119z"/>
<path style="fill:#C7FFEA;" d="M314.172,64.119c-23.77,0-43.03,19.26-43.03,43.03c0,23.758,19.259,43.029,43.028,43.03
	c11.735,0,21.245-19.271,21.245-43.03C335.414,83.379,325.904,64.119,314.172,64.119z"/>
<path style="fill:#9EF3D3;" d="M430.516,296.805v86.06c23.77,0,43.03-19.271,43.03-43.03
	C473.546,316.065,454.286,296.805,430.516,296.805z"/>
<path style="fill:#C7FFEA;" d="M430.516,296.805c-23.77,0-43.03,19.26-43.03,43.03c0,23.759,19.26,43.03,43.03,43.03
	c11.732,0,21.243-19.271,21.243-43.03C451.758,316.065,442.248,296.805,430.516,296.805z"/>
<path style="fill:#9EF3D3;" d="M430.516,180.461v86.06c23.77,0,43.03-19.271,43.03-43.03
	C473.546,199.721,454.286,180.461,430.516,180.461z"/>
<path style="fill:#C7FFEA;" d="M430.516,180.461c-23.77,0-43.03,19.26-43.03,43.03c0,23.759,19.26,43.03,43.03,43.03
	c11.732,0,21.243-19.271,21.243-43.03C451.758,199.721,442.248,180.461,430.516,180.461z"/>
<path style="fill:#9EF3D3;" d="M430.516,64.119v86.06c23.77,0,43.03-19.271,43.03-43.03
	C473.546,83.379,454.286,64.119,430.516,64.119z"/>
<path style="fill:#C7FFEA;" d="M430.516,64.119c-23.77,0-43.03,19.26-43.03,43.03c0,23.758,19.259,43.029,43.028,43.03
	c11.735,0,21.245-19.271,21.245-43.03C451.758,83.379,442.248,64.119,430.516,64.119z"/>
<path d="M81.484,274.691c28.232,0,51.2-22.968,51.2-51.2s-22.968-51.2-51.2-51.2s-51.2,22.968-51.2,51.2
	S53.252,274.691,81.484,274.691z M81.484,188.631c19.222,0,34.86,15.638,34.86,34.86s-15.638,34.86-34.86,34.86
	s-34.86-15.638-34.86-34.86S62.262,188.631,81.484,188.631z"/>
<path d="M197.828,274.691c28.232,0,51.2-22.968,51.2-51.2s-22.968-51.2-51.2-51.2s-51.2,22.968-51.2,51.2
	S169.596,274.691,197.828,274.691z M197.828,188.631c19.222,0,34.86,15.638,34.86,34.86s-15.638,34.86-34.86,34.86
	s-34.86-15.638-34.86-34.86S178.606,188.631,197.828,188.631z"/>
<path d="M314.172,274.691c28.232,0,51.2-22.968,51.2-51.2s-22.968-51.2-51.2-51.2c-28.232,0-51.2,22.968-51.2,51.2
	S285.94,274.691,314.172,274.691z M314.172,188.631c19.222,0,34.86,15.638,34.86,34.86s-15.638,34.86-34.86,34.86
	s-34.86-15.638-34.86-34.86S294.951,188.631,314.172,188.631z"/>
<path d="M430.516,274.691c28.232,0,51.2-22.968,51.2-51.2s-22.968-51.2-51.2-51.2s-51.2,22.968-51.2,51.2
	S402.284,274.691,430.516,274.691z M430.516,188.631c19.222,0,34.86,15.638,34.86,34.86s-15.638,34.86-34.86,34.86
	s-34.86-15.638-34.86-34.86S411.295,188.631,430.516,188.631z"/>
<path d="M81.484,158.347c28.232,0,51.2-22.968,51.2-51.2s-22.968-51.2-51.2-51.2s-51.2,22.968-51.2,51.2
	S53.252,158.347,81.484,158.347z M81.484,72.287c19.222,0,34.86,15.638,34.86,34.86s-15.638,34.86-34.86,34.86
	s-34.86-15.638-34.86-34.86S62.262,72.287,81.484,72.287z"/>
<path d="M197.828,158.347c28.232,0,51.2-22.968,51.2-51.2s-22.968-51.2-51.2-51.2s-51.2,22.968-51.2,51.2
	S169.596,158.347,197.828,158.347z M197.828,72.287c19.222,0,34.86,15.638,34.86,34.86s-15.638,34.86-34.86,34.86
	s-34.86-15.638-34.86-34.86S178.606,72.287,197.828,72.287z"/>
<path d="M314.172,158.347c28.232,0,51.2-22.968,51.2-51.2s-22.968-51.2-51.2-51.2c-28.232,0-51.2,22.968-51.2,51.2
	S285.94,158.347,314.172,158.347z M314.172,72.287c19.222,0,34.86,15.638,34.86,34.86s-15.638,34.86-34.86,34.86
	s-34.86-15.638-34.86-34.86S294.951,72.287,314.172,72.287z"/>
<path d="M430.516,158.347c28.232,0,51.2-22.968,51.2-51.2s-22.968-51.2-51.2-51.2s-51.2,22.968-51.2,51.2
	S402.284,158.347,430.516,158.347z M430.516,72.287c19.222,0,34.86,15.638,34.86,34.86s-15.638,34.86-34.86,34.86
	s-34.86-15.638-34.86-34.86S411.295,72.287,430.516,72.287z"/>
<path d="M132.684,339.835c0-28.232-22.968-51.2-51.2-51.2s-51.2,22.968-51.2,51.2c0,28.232,22.968,51.2,51.2,51.2
	S132.684,368.066,132.684,339.835z M81.484,374.694c-19.222,0-34.86-15.638-34.86-34.86s15.638-34.86,34.86-34.86
	s34.86,15.638,34.86,34.86S100.706,374.694,81.484,374.694z"/>
<path d="M197.828,391.035c28.232,0,51.2-22.968,51.2-51.2c0-28.232-22.968-51.2-51.2-51.2s-51.2,22.968-51.2,51.2
	C146.628,368.066,169.596,391.035,197.828,391.035z M197.828,304.975c19.222,0,34.86,15.638,34.86,34.86s-15.638,34.86-34.86,34.86
	s-34.86-15.638-34.86-34.86S178.606,304.975,197.828,304.975z"/>
<path d="M314.172,391.035c28.232,0,51.2-22.968,51.2-51.2c0-28.232-22.968-51.2-51.2-51.2c-28.232,0-51.2,22.968-51.2,51.2
	C262.972,368.066,285.94,391.035,314.172,391.035z M314.172,304.975c19.222,0,34.86,15.638,34.86,34.86s-15.638,34.86-34.86,34.86
	s-34.86-15.638-34.86-34.86S294.951,304.975,314.172,304.975z"/>
<path d="M430.516,391.035c28.232,0,51.2-22.968,51.2-51.2c0-28.232-22.968-51.2-51.2-51.2s-51.2,22.968-51.2,51.2
	C379.316,368.066,402.284,391.035,430.516,391.035z M430.516,304.975c19.222,0,34.86,15.638,34.86,34.86s-15.638,34.86-34.86,34.86
	s-34.86-15.638-34.86-34.86S411.295,304.975,430.516,304.975z"/>
<path d="M503.83,25.664H8.17c-4.512,0-8.17,3.657-8.17,8.17v444.332c0,4.513,3.658,8.17,8.17,8.17h495.66
	c4.513,0,8.17-3.657,8.17-8.17V33.834C512,29.321,508.343,25.664,503.83,25.664z M16.34,469.995v-48.677h48.803
	c4.512,0,8.17-3.657,8.17-8.17s-3.658-8.17-8.17-8.17H16.34V42.004H495.66v362.974H97.825c-4.512,0-8.17,3.657-8.17,8.17
	c0,4.513,3.658,8.17,8.17,8.17H495.66v48.677H16.34V469.995z"/>
</svg>