<?xml version="1.0" encoding="iso-8859-1"?>
<!-- Uploaded to: SVG Repo, www.svgrepo.com, Generator: SVG Repo Mixer Tools -->
<svg version="1.1" id="Layer_1" xmlns="http://www.w3.org/2000/svg" xmlns:xlink="http://www.w3.org/1999/xlink" 
	 viewBox="0 0 512 512" xml:space="preserve">
<g>
	<polygon style="fill:#C7FFEA;" points="371.2,249.518 270.641,350.077 106.768,405.319 161.923,241.359 262.482,140.8 
		354.043,158.169 	"/>
	<polygon style="fill:#C7FFEA;" points="270.641,350.077 84.981,427.106 84.894,427.106 84.894,503.83 412.857,503.83 
		467.325,426.954 412.857,350.077 	"/>
	<polygon style="fill:#C7FFEA;" points="8.17,99.143 8.17,427.106 84.894,427.106 84.894,427.019 161.923,241.359 161.923,99.143 
		85.046,44.675 	"/>
</g>
<polygon style="fill:#9EF3D3;" points="270.641,350.077 161.923,350.077 161.923,241.359 30.578,372.703 139.297,481.422 "/>
<polygon style="fill:#6DDEB4;" points="161.923,350.077 161.923,427.106 84.981,427.106 84.894,427.019 84.894,350.077 "/>
<polygon style="fill:#F77A20;" points="129.243,8.17 161.924,8.17 161.924,99.143 129.243,99.143 96.562,53.657 "/>
<rect x="8.171" y="8.17" style="fill:#F79A30;" width="121.072" height="90.973"/>
<polygon style="fill:#2AA175;" points="412.423,162.08 435.531,185.189 371.204,249.516 348.095,226.407 357.149,171.134 "/>
<rect x="291.97" y="90.907" transform="matrix(-0.7071 0.7071 -0.7071 -0.7071 683.1589 19.9106)" style="fill:#4FC297;" width="90.972" height="121.07"/>
<polygon style="fill:#941108;" points="503.83,471.149 503.83,503.83 412.857,503.83 412.857,471.149 458.343,438.468 "/>
<rect x="412.857" y="350.077" style="fill:#BD0A13;" width="90.973" height="121.072"/>
<path d="M232.595,350.076c0-4.513-3.658-8.17-8.17-8.17H84.898c-4.512,0-8.17,3.657-8.17,8.17v30.721c0,4.513,3.658,8.17,8.17,8.17
	c4.512,0,8.17-3.657,8.17-8.17v-22.551h131.356C228.937,358.246,232.595,354.589,232.595,350.076z"/>
<path d="M503.83,341.906h-213.46l150.94-150.94c1.533-1.533,2.393-3.61,2.393-5.778c0-2.167-0.861-4.244-2.393-5.778L332.589,70.69
	c-3.191-3.19-8.364-3.19-11.555,0l-150.94,150.941V8.17c0-4.513-3.658-8.17-8.17-8.17H8.17C3.658,0,0,3.657,0,8.17v418.93
	c0,4.513,3.658,8.17,8.17,8.17h68.558v68.559c0,4.513,3.658,8.17,8.17,8.17H503.83c4.512,0,8.17-3.657,8.17-8.17V350.076
	C512,345.564,508.342,341.906,503.83,341.906z M90.766,421.327c-0.002-0.002-0.004-0.004-0.007-0.008l-48.623-48.622l125.5-125.5
	c0.042-0.041,0.084-0.083,0.124-0.124l94.719-94.719l97.166,97.166l-94.773,94.773c-0.004,0.004-0.008,0.008-0.012,0.012
	L139.302,469.863L90.766,421.327z M326.811,88.024l97.166,97.166L371.2,237.966L274.034,140.8L326.811,88.024z M153.754,16.34
	v74.638H16.34V16.34H153.754z M16.34,107.318h137.413v130.653L24.805,366.92c-1.533,1.533-2.393,3.61-2.393,5.778
	c0,2.168,0.861,4.245,2.393,5.778l40.456,40.456H16.34V107.318z M93.069,446.74l40.457,40.457c1.595,1.595,3.686,2.392,5.777,2.392
	s4.182-0.797,5.777-2.392l128.949-128.949h130.654V495.66H93.069V446.74z M495.66,495.66h-74.638V358.246h74.638V495.66z"/>
<path d="M161.924,325.563c4.512,0,8.17-3.657,8.17-8.17v-29.827c0-4.513-3.658-8.17-8.17-8.17s-8.17,3.657-8.17,8.17v29.827
	C153.754,321.906,157.412,325.563,161.924,325.563z"/>
<path d="M170.094,427.101v-44.345c0-4.513-3.658-8.17-8.17-8.17s-8.17,3.657-8.17,8.17v36.174h-22.549
	c-4.512,0-8.17,3.658-8.17,8.17c0,4.513,3.658,8.17,8.17,8.17h30.719C166.436,435.271,170.094,431.614,170.094,427.101z"/>
</svg>